<svg xmlns="http://www.w3.org/2000/svg" width="1440" height="867.604" viewBox="0 0 1440 867.604">
  <g id="confettis" transform="translate(0 0)" opacity="0.5">
    <g id="confettis-2" data-name="confettis" transform="translate(23.042 45.096)">
      <circle id="Ellipse_11" data-name="Ellipse 11" cx="25.919" cy="25.919" r="25.919" transform="translate(1362.332 332.995) rotate(86.704)" fill="#ffccbc" opacity="0.63"/>
      <circle id="Ellipse_11-2" data-name="Ellipse 11" cx="25.919" cy="25.919" r="25.919" transform="translate(1234.732 580.023) rotate(79.098)" fill="rgba(255,204,188,0.6)" opacity="0.562"/>
      <circle id="Ellipse_11-3" data-name="Ellipse 11" cx="25.919" cy="25.919" r="25.919" transform="translate(385.088 785.564) rotate(-89.241)" fill="#ffccbc" opacity="0.263"/>
      <circle id="Ellipse_11-4" data-name="Ellipse 11" cx="25.919" cy="25.919" r="25.919" transform="translate(147.053 352.088) rotate(-117.634)" fill="#ffccbc" opacity="0.745"/>
      <circle id="Ellipse_11-5" data-name="Ellipse 11" cx="25.919" cy="25.919" r="25.919" transform="translate(0 52.693) rotate(-66.93)" fill="#ffccbc" opacity="0.543"/>
      <circle id="Ellipse_12" data-name="Ellipse 12" cx="25.919" cy="25.919" r="25.919" transform="matrix(0.839, 0.544, -0.544, 0.839, 1206.272, 0.753)" fill="#ffccbc" opacity="0.106"/>
      <circle id="Ellipse_11-6" data-name="Ellipse 11" cx="25.919" cy="25.919" r="25.919" transform="matrix(0.693, -0.721, 0.721, 0.693, 449.622, 744.305)" fill="#ffccbc" opacity="0.524"/>
      <circle id="Ellipse_11-7" data-name="Ellipse 11" cx="25.919" cy="25.919" r="25.919" transform="matrix(0.4, 0.917, -0.917, 0.4, 230.63, 620.527)" fill="#ffccbc" opacity="0.075"/>
      <circle id="Ellipse_11-8" data-name="Ellipse 11" cx="25.919" cy="25.919" r="25.919" transform="matrix(-0.518, 0.856, -0.856, -0.518, 983.879, 778.159)" fill="#ffccbc" opacity="0.231"/>
    </g>
    <g id="confettis-3" data-name="confettis" opacity="0.3">
      <circle id="Ellipse_11-9" data-name="Ellipse 11" cx="15.34" cy="15.34" r="15.34" transform="translate(178.558 554.54)" fill="#ffccbc"/>
      <circle id="Ellipse_11-10" data-name="Ellipse 11" cx="15.34" cy="15.34" r="15.34" transform="translate(398.608 78.469) rotate(129.803)" fill="#ffccbc" opacity="0.581"/>
      <circle id="Ellipse_11-11" data-name="Ellipse 11" cx="15.34" cy="15.34" r="15.34" transform="translate(608.079 714.285) rotate(-89.241)" fill="#ffccbc" opacity="0.783"/>
      <circle id="Ellipse_11-12" data-name="Ellipse 11" cx="15.34" cy="15.34" r="15.34" transform="translate(720.221 719.578) rotate(119.154)" fill="#ffccbc" opacity="0.985"/>
      <circle id="Ellipse_11-13" data-name="Ellipse 11" cx="15.34" cy="15.34" r="15.34" transform="translate(234.629 190.611) rotate(-84.17)" fill="#ffccbc" opacity="0.267"/>
      <circle id="Ellipse_11-14" data-name="Ellipse 11" cx="15.34" cy="15.34" r="15.34" transform="matrix(-0.995, 0.097, -0.097, -0.995, 565.762, 353.532)" fill="#ffccbc" opacity="0.827"/>
      <circle id="Ellipse_11-15" data-name="Ellipse 11" cx="15.34" cy="15.34" r="15.34" transform="translate(913.822 521.744)" fill="#ffccbc" opacity="0.817"/>
      <circle id="Ellipse_11-16" data-name="Ellipse 11" cx="15.34" cy="15.34" r="15.34" transform="translate(215.586 79.527) rotate(33.97)" fill="#ffccbc" opacity="0.532"/>
      <circle id="Ellipse_11-17" data-name="Ellipse 11" cx="15.34" cy="15.34" r="15.34" transform="matrix(0.154, 0.988, -0.988, 0.154, 189.137, 564.061)" fill="#ffccbc" opacity="0.436"/>
      <circle id="Ellipse_11-18" data-name="Ellipse 11" cx="15.34" cy="15.34" r="15.34" transform="translate(925.46 117.613) rotate(116.111)" fill="#ffccbc" opacity="0.714"/>
      <circle id="Ellipse_11-19" data-name="Ellipse 11" cx="15.34" cy="15.34" r="15.34" transform="translate(1152.916 803.154) rotate(58.816)" fill="#ffccbc" opacity="0.324"/>
      <circle id="Ellipse_11-20" data-name="Ellipse 11" cx="15.34" cy="15.34" r="15.34" transform="translate(743.495 647.638) rotate(115.097)" fill="#ffccbc" opacity="0.37"/>
      <circle id="Ellipse_11-21" data-name="Ellipse 11" cx="15.34" cy="15.34" r="15.34" transform="translate(726.568 10.762) rotate(110.534)" fill="#ffccbc" opacity="0.751"/>
      <circle id="Ellipse_11-22" data-name="Ellipse 11" cx="15.34" cy="15.34" r="15.34" transform="matrix(0.562, -0.827, 0.827, 0.562, 1174.074, 548.192)" fill="#ffccbc" opacity="0.192"/>
      <circle id="Ellipse_11-23" data-name="Ellipse 11" cx="15.34" cy="15.34" r="15.34" transform="translate(325.611 363.054) rotate(-82.141)" fill="#ffccbc" opacity="0.391"/>
      <circle id="Ellipse_11-24" data-name="Ellipse 11" cx="15.34" cy="15.34" r="15.34" transform="translate(364.755 750.258) rotate(-72.001)" fill="#ffccbc" opacity="0.945"/>
      <circle id="Ellipse_11-25" data-name="Ellipse 11" cx="15.34" cy="15.34" r="15.34" transform="translate(1433.268 851.819) rotate(-167.325)" fill="#ffccbc" opacity="0.666"/>
      <circle id="Ellipse_11-26" data-name="Ellipse 11" cx="15.34" cy="15.34" r="15.34" transform="translate(695.888 127.135) rotate(76.055)" fill="#ffccbc" opacity="0.758"/>
      <circle id="Ellipse_11-27" data-name="Ellipse 11" cx="15.34" cy="15.34" r="15.34" transform="translate(1120.119 519.628) rotate(-70.987)" fill="#ffccbc" opacity="0.208"/>
      <circle id="Ellipse_11-28" data-name="Ellipse 11" cx="15.34" cy="15.34" r="15.34" transform="translate(28.332 429.704) rotate(67.435)" fill="#ffccbc" opacity="0.85"/>
      <circle id="Ellipse_12-2" data-name="Ellipse 12" cx="15.34" cy="15.34" r="15.34" transform="translate(1208.332 379.704) rotate(67.435)" fill="#ffccbc" opacity="0.85"/>
      <circle id="Ellipse_11-29" data-name="Ellipse 11" cx="15.34" cy="15.34" r="15.34" transform="translate(1013.269 457.21) rotate(-40.565)" fill="#ffccbc" opacity="0.14"/>
      <circle id="Ellipse_11-30" data-name="Ellipse 11" cx="15.34" cy="15.34" r="15.34" transform="translate(484.301 216.001) rotate(-38.536)" fill="#ffccbc" opacity="0.135"/>
      <circle id="Ellipse_11-31" data-name="Ellipse 11" cx="15.34" cy="15.34" r="15.34" transform="translate(936.039 704.767) rotate(96.338)" fill="#ffccbc" opacity="0.516"/>
      <circle id="Ellipse_11-32" data-name="Ellipse 11" cx="15.34" cy="15.34" r="15.34" transform="translate(1328.532 125.019) rotate(-106.986)" fill="#ffccbc" opacity="0.01"/>
      <circle id="Ellipse_11-33" data-name="Ellipse 11" cx="15.34" cy="15.34" r="15.34" transform="matrix(0.206, 0.978, -0.978, 0.206, 93.923, 532.323)" fill="#ffccbc" opacity="0.686"/>
    </g>
  </g>
</svg>
